<svg width="100" height="100" viewBox="0 0 100 100" fill="none" xmlns="http://www.w3.org/2000/svg">
<g filter="url(#filter0_d)">
<g filter="url(#filter1_d)">
<path fill-rule="evenodd" clip-rule="evenodd" d="M80.3036 17H81C82.6569 17 84 18.3431 84 20C84 20.1104 83.9941 20.2194 83.9825 20.3267C83.9941 20.4456 84 20.5662 84 20.6882V64.6276C84 64.8381 83.9822 65.02 83.9483 65.1753C83.9825 65.4464 84 65.7215 84 66C84 70.4183 79.5868 74 74.1429 74C68.6989 74 64.2857 70.4183 64.2857 66C64.2857 61.5817 68.6989 58 74.1429 58C75.0507 58 75.9299 58.0996 76.7648 58.2861C76.6629 57.8749 76.6071 57.4783 76.6071 57.106V23L37.1786 23V74.5C37.1786 74.571 37.1766 74.6389 37.1727 74.7036C37.1766 74.802 37.1786 74.9008 37.1786 75C37.1786 79.9706 32.2137 84 26.0893 84C19.9648 84 15 79.9706 15 75C15 70.0294 19.9648 66 26.0893 66C27.3854 66 28.6295 66.1805 29.7857 66.5121V21.6964C29.7857 21.3894 29.8231 21.0911 29.8937 20.8059C29.8233 20.5494 29.7857 20.2792 29.7857 20C29.7857 18.3431 31.1289 17 32.7857 17H80.3036Z" fill="#DC73AC"/>
<path d="M83.9825 20.3267L82.4911 20.1663L82.4747 20.3189L82.4896 20.4717L83.9825 20.3267ZM83.9483 65.1753L82.4828 64.8553L82.4278 65.1073L82.4601 65.3631L83.9483 65.1753ZM76.7648 58.2861L76.4378 59.75L78.8037 60.2785L78.2208 57.9254L76.7648 58.2861ZM76.6071 23H78.1071V21.5L76.6071 21.5L76.6071 23ZM37.1786 23L37.1786 21.5L35.6786 21.5V23H37.1786ZM37.1727 74.7036L35.6754 74.613L35.6709 74.6881L35.6739 74.7633L37.1727 74.7036ZM29.7857 66.5121L29.3721 67.954L31.2857 68.5029V66.5121H29.7857ZM29.8937 20.8059L31.3498 21.1661L31.4438 20.7861L31.3402 20.4087L29.8937 20.8059ZM81 15.5H80.3036V18.5H81V15.5ZM85.5 20C85.5 17.5147 83.4853 15.5 81 15.5V18.5C81.8284 18.5 82.5 19.1716 82.5 20H85.5ZM85.4739 20.4871C85.4912 20.3266 85.5 20.1641 85.5 20H82.5C82.5 20.0567 82.497 20.1122 82.4911 20.1663L85.4739 20.4871ZM82.4896 20.4717C82.4964 20.5425 82.5 20.6147 82.5 20.6882H85.5C85.5 20.5177 85.4917 20.3487 85.4755 20.1817L82.4896 20.4717ZM82.5 20.6882V64.6276H85.5V20.6882H82.5ZM82.5 64.6276C82.5 64.7569 82.4887 64.8282 82.4828 64.8553L85.4137 65.4953C85.4756 65.2119 85.5 64.9192 85.5 64.6276H82.5ZM85.5 66C85.5 65.6585 85.4785 65.3207 85.4365 64.9875L82.4601 65.3631C82.4864 65.5722 82.5 65.7846 82.5 66H85.5ZM74.1429 75.5C80.1075 75.5 85.5 71.5241 85.5 66H82.5C82.5 69.3124 79.0661 72.5 74.1429 72.5V75.5ZM62.7857 66C62.7857 71.5241 68.1782 75.5 74.1429 75.5V72.5C69.2196 72.5 65.7857 69.3124 65.7857 66H62.7857ZM74.1429 56.5C68.1782 56.5 62.7857 60.4759 62.7857 66H65.7857C65.7857 62.6876 69.2196 59.5 74.1429 59.5V56.5ZM77.0918 56.8222C76.1493 56.6116 75.1604 56.5 74.1429 56.5V59.5C74.9411 59.5 75.7106 59.5876 76.4378 59.75L77.0918 56.8222ZM78.2208 57.9254C78.1414 57.6052 78.1071 57.3317 78.1071 57.106H75.1071C75.1071 57.6248 75.1844 58.1446 75.3088 58.6468L78.2208 57.9254ZM78.1071 57.106V23H75.1071V57.106H78.1071ZM37.1786 24.5L76.6071 24.5L76.6071 21.5L37.1786 21.5L37.1786 24.5ZM38.6786 74.5V23H35.6786V74.5H38.6786ZM38.6699 74.7941C38.6758 74.697 38.6786 74.5989 38.6786 74.5H35.6786C35.6786 74.5432 35.6774 74.5807 35.6754 74.613L38.6699 74.7941ZM38.6786 75C38.6786 74.8809 38.6762 74.7621 38.6715 74.6438L35.6739 74.7633C35.677 74.8418 35.6786 74.9207 35.6786 75H38.6786ZM26.0893 85.5C32.7344 85.5 38.6786 81.0764 38.6786 75H35.6786C35.6786 78.8647 31.6931 82.5 26.0893 82.5V85.5ZM13.5 75C13.5 81.0764 19.4442 85.5 26.0893 85.5V82.5C20.4855 82.5 16.5 78.8647 16.5 75H13.5ZM26.0893 64.5C19.4442 64.5 13.5 68.9236 13.5 75H16.5C16.5 71.1353 20.4855 67.5 26.0893 67.5V64.5ZM30.1993 65.0703C28.9079 64.6998 27.5245 64.5 26.0893 64.5V67.5C27.2463 67.5 28.3512 67.6611 29.3721 67.954L30.1993 65.0703ZM28.2857 21.6964V66.5121H31.2857V21.6964H28.2857ZM28.4376 20.4457C28.3381 20.8479 28.2857 21.2671 28.2857 21.6964H31.2857C31.2857 21.5117 31.3082 21.3344 31.3498 21.1661L28.4376 20.4457ZM28.2857 20C28.2857 20.4143 28.3415 20.8181 28.4472 21.203L31.3402 20.4087C31.305 20.2808 31.2857 20.1441 31.2857 20H28.2857ZM32.7857 15.5C30.3004 15.5 28.2857 17.5147 28.2857 20H31.2857C31.2857 19.1716 31.9573 18.5 32.7857 18.5V15.5ZM80.3036 15.5H32.7857V18.5H80.3036V15.5Z" fill="#DC73AC"/>
</g>
</g>
<defs>
<filter id="filter0_d" x="-9" y="-9" width="118" height="118" filterUnits="userSpaceOnUse" color-interpolation-filters="sRGB">
<feFlood flood-opacity="0" result="BackgroundImageFix"/>
<feColorMatrix in="SourceAlpha" type="matrix" values="0 0 0 0 0 0 0 0 0 0 0 0 0 0 0 0 0 0 127 0"/>
<feOffset/>
<feGaussianBlur stdDeviation="4.5"/>
<feColorMatrix type="matrix" values="0 0 0 0 1 0 0 0 0 0 0 0 0 0 0.541176 0 0 0 1 0"/>
<feBlend mode="normal" in2="BackgroundImageFix" result="effect1_dropShadow"/>
<feBlend mode="normal" in="SourceGraphic" in2="effect1_dropShadow" result="shape"/>
</filter>
<filter id="filter1_d" x="11.5" y="13.5" width="76" height="74" filterUnits="userSpaceOnUse" color-interpolation-filters="sRGB">
<feFlood flood-opacity="0" result="BackgroundImageFix"/>
<feColorMatrix in="SourceAlpha" type="matrix" values="0 0 0 0 0 0 0 0 0 0 0 0 0 0 0 0 0 0 127 0"/>
<feOffset/>
<feGaussianBlur stdDeviation="1"/>
<feColorMatrix type="matrix" values="0 0 0 0 1 0 0 0 0 0 0 0 0 0 0.541176 0 0 0 0.49 0"/>
<feBlend mode="normal" in2="BackgroundImageFix" result="effect1_dropShadow"/>
<feBlend mode="normal" in="SourceGraphic" in2="effect1_dropShadow" result="shape"/>
</filter>
</defs>
</svg>
