<svg width="539" height="156" viewBox="0 0 539 156" fill="none" xmlns="http://www.w3.org/2000/svg">
<g filter="url(#filter0_f)">
<path d="M327.731 76.4974C327.731 76.4974 331.518 67.3159 322.91 66.7994C303.158 65.6142 286.758 96.6972 294.62 112.765C301.809 127.457 323.312 123.553 336.224 107.945" stroke="#D64091" stroke-opacity="0.53" stroke-width="16" stroke-linecap="round" stroke-linejoin="round"/>
<path d="M95.1211 44.7921C100.689 36.6128 111.431 35.1635 116.016 44.7921C120.601 54.4207 81.0538 131.053 109.518 121.368C122.874 116.246 125.622 111.516 125.622 103.464" stroke="#D64091" stroke-opacity="0.53" stroke-width="16" stroke-linecap="round" stroke-linejoin="round"/>
<path d="M34 48.4052C36.8969 43.1153 44.7916 32.9191 50.5349 33.5237C56.2783 34.1282 59.177 39.4623 57.9293 44.0576C52.2485 64.9811 36.2326 116.273 36.2326 116.273" stroke="#D64091" stroke-opacity="0.53" stroke-width="16" stroke-linecap="round" stroke-linejoin="round"/>
<path d="M66.2318 44.862C70.377 39.7834 74.909 37.7615 80.6523 38.3661C87.6673 39.1045 87.451 47.1169 86.2034 51.7122C80.5225 72.6357 66.2319 119.58 66.2319 119.58" stroke="#D64091" stroke-opacity="0.53" stroke-width="16" stroke-linecap="round" stroke-linejoin="round"/>
<path d="M147.737 62.9324C142.214 80.1067 132.397 106.306 135.808 115.963C137.722 121.381 149.155 119.151 155.296 114.073M175.256 66.7118C164.745 98.7189 160.933 120.55 166.516 121.514C182.933 124.348 201.122 96.9473 218.484 51.2397" stroke="#D64091" stroke-opacity="0.53" stroke-width="16" stroke-linecap="round" stroke-linejoin="round"/>
<path d="M219.665 70.8456C219.665 77.2233 221.924 79.8754 223.562 85.609C228.523 102.971 224.389 127.183 199.704 118.443" stroke="#D64091" stroke-opacity="0.53" stroke-width="16" stroke-linecap="round" stroke-linejoin="round"/>
<path d="M224.696 120.699C235.425 124.697 241.456 115.931 247.346 106.324M275.515 41.6921L273.458 50.1758M269.863 63.057C266.139 74.228 253.865 109.73 257.798 119.955C260.611 127.266 280.215 114.369 283.938 106.922" stroke="#D64091" stroke-opacity="0.53" stroke-width="16" stroke-linecap="round" stroke-linejoin="round"/>
<path d="M428.298 37.4543C404.587 24.2669 377.946 58.2343 378.878 85.9412C379.403 101.521 382.349 119.572 398.726 120.575C424.834 122.173 443.278 87.3998 434.886 46.9053M444.473 62.7153C444.473 62.7153 457.285 62.7153 458.867 56.3881M466.887 63.1506L451.08 116.58M473.72 70.7246C476.684 68.1725 478.13 67.8432 482.2 67.8432C500.888 67.8432 469.939 118.924 481.788 120.45C492.327 121.807 497.43 117.898 505.745 107.277" stroke="#D64091" stroke-opacity="0.53" stroke-width="16" stroke-linecap="round" stroke-linejoin="round"/>
</g>
<path d="M327.731 75.9995C327.731 75.9995 331.518 66.818 322.91 66.3015C303.158 65.1162 286.758 96.1993 294.62 112.267C301.809 126.959 323.312 123.055 336.224 107.447" stroke="#FF008A" stroke-width="5" stroke-linecap="round" stroke-linejoin="round"/>
<path d="M95.1211 44.2942C100.689 36.1149 111.431 34.6656 116.016 44.2942C120.601 53.9228 81.0538 130.555 109.518 120.87C122.874 115.748 125.622 111.018 125.622 102.966" stroke="#FF008A" stroke-width="5" stroke-linecap="round" stroke-linejoin="round"/>
<path d="M34 47.9073C36.8969 42.6173 44.7916 32.4212 50.5349 33.0257C56.2783 33.6303 59.177 38.9643 57.9293 43.5597C52.2485 64.4832 36.2326 115.775 36.2326 115.775" stroke="#FF008A" stroke-width="5" stroke-linecap="round" stroke-linejoin="round"/>
<path d="M66.2318 44.364C70.377 39.2854 74.909 37.2636 80.6523 37.8681C87.6673 38.6065 87.451 46.6189 86.2034 51.2143C80.5225 72.1378 66.2319 119.082 66.2319 119.082" stroke="#FF008A" stroke-width="5" stroke-linecap="round" stroke-linejoin="round"/>
<path d="M147.737 62.4345C142.214 79.6088 132.397 105.808 135.808 115.465C137.722 120.883 149.155 118.654 155.296 113.575M175.256 66.2139C164.745 98.2209 160.933 120.052 166.516 121.016C182.933 123.85 201.122 96.4493 218.484 50.7418" stroke="#FF008A" stroke-width="5" stroke-linecap="round" stroke-linejoin="round"/>
<path d="M219.665 70.3476C219.665 76.7254 221.924 79.3775 223.562 85.111C228.523 102.473 224.389 126.685 199.704 117.945" stroke="#FF008A" stroke-width="5" stroke-linecap="round" stroke-linejoin="round"/>
<path d="M224.696 120.202C235.425 124.199 241.456 115.433 247.346 105.826M275.515 41.1942L273.458 49.6779M269.863 62.5591C266.139 73.7301 253.865 109.232 257.798 119.457C260.611 126.768 280.215 113.871 283.938 106.424" stroke="#FF008A" stroke-width="5" stroke-linecap="round" stroke-linejoin="round"/>
<path d="M428.298 36.9564C404.587 23.769 377.946 57.7364 378.878 85.4432C379.403 101.023 382.349 119.074 398.726 120.077C424.834 121.675 443.278 86.9019 434.886 46.4074M444.473 62.2174C444.473 62.2174 457.285 62.2174 458.867 55.8902M466.887 62.6526L451.08 116.082M473.72 70.2267C476.684 67.6746 478.13 67.3452 482.2 67.3452C500.888 67.3452 469.939 118.426 481.788 119.952C492.327 121.309 497.43 117.4 505.745 106.78" stroke="#FF008A" stroke-width="5" stroke-linecap="round" stroke-linejoin="round"/>
<defs>
<filter id="filter0_f" x="0.998535" y="0.497345" width="537.747" height="154.714" filterUnits="userSpaceOnUse" color-interpolation-filters="sRGB">
<feFlood flood-opacity="0" result="BackgroundImageFix"/>
<feBlend mode="normal" in="SourceGraphic" in2="BackgroundImageFix" result="shape"/>
<feGaussianBlur stdDeviation="12.5" result="effect1_foregroundBlur"/>
</filter>
</defs>
</svg>
