<svg width="60" height="60" viewBox="0 0 60 60" fill="none" xmlns="http://www.w3.org/2000/svg">
<path fill-rule="evenodd" clip-rule="evenodd" d="M55.6718 29.5353L9.51683 4.15033C9.32652 4.04564 9.1122 3.99234 8.89502 3.9957C8.67783 3.99905 8.46526 4.05895 8.27828 4.16947C8.09129 4.28 7.93632 4.43735 7.82867 4.62601C7.72101 4.81466 7.66437 5.02812 7.66433 5.24533L15.5 30.6303L7.66433 56.0153C7.66437 56.2325 7.72101 56.446 7.82867 56.6347C7.93632 56.8233 8.09129 56.9807 8.27828 57.0912C8.46526 57.2017 8.67783 57.2616 8.89502 57.265C9.1122 57.2683 9.32652 57.215 9.51683 57.1103L55.6718 31.7253C55.8678 31.6174 56.0312 31.4589 56.1451 31.2663C56.2589 31.0737 56.3189 30.8541 56.3189 30.6303C56.3189 30.4066 56.2589 30.187 56.1451 29.9944C56.0312 29.8018 55.8678 29.6432 55.6718 29.5353ZM12.6643 49.6728L19 30.6303L12.6643 11.5878L47.2893 30.6303L12.6643 49.6728Z" fill="black"/>
</svg>
