<svg width="54" height="54" viewBox="0 0 54 54" fill="none" xmlns="http://www.w3.org/2000/svg">
<path d="M27.1462 0.595398C12.5575 0.595398 0.718262 12.4347 0.718262 27.0233C0.718262 41.612 12.5575 53.4513 27.1462 53.4513C41.7348 53.4513 53.5741 41.612 53.5741 27.0233C53.5741 12.4347 41.7348 0.595398 27.1462 0.595398ZM37.8772 39.4807C37.4296 39.4807 37.1526 39.3422 36.737 39.0971C30.0874 35.0902 22.3508 34.9197 14.7101 36.4862C14.2945 36.5928 13.7511 36.7633 13.442 36.7633C12.4084 36.7633 11.7583 35.9428 11.7583 35.0796C11.7583 33.982 12.4084 33.4598 13.2076 33.2893C21.9352 31.3605 30.8546 31.531 38.4633 36.0813C39.1134 36.4969 39.497 36.8699 39.497 37.8396C39.497 38.8093 38.7404 39.4807 37.8772 39.4807ZM40.7438 32.4901C40.1897 32.4901 39.8167 32.245 39.433 32.0425C32.7728 28.0996 22.841 26.5118 14.0068 28.9095C13.4953 29.048 13.2182 29.1866 12.7387 29.1866C11.5985 29.1866 10.6714 28.2595 10.6714 27.1192C10.6714 25.979 11.2255 25.2224 12.3231 24.9134C15.2856 24.0822 18.312 23.4641 22.7451 23.4641C29.6611 23.4641 36.3427 25.1798 41.607 28.3128C42.4701 28.8243 42.8111 29.485 42.8111 30.4121C42.8005 31.563 41.9053 32.4901 40.7438 32.4901ZM44.0473 24.3699C43.4931 24.3699 43.1521 24.2313 42.6726 23.9543C35.0852 19.4253 21.5196 18.3383 12.7387 20.7893C12.3551 20.8959 11.8755 21.0664 11.364 21.0664C9.95738 21.0664 8.88108 19.9688 8.88108 18.5515C8.88108 17.1022 9.77622 16.2817 10.7353 16.0046C14.4864 14.907 18.685 14.3848 23.2566 14.3848C31.0358 14.3848 39.188 16.0046 45.1449 19.4786C45.9761 19.9581 46.5196 20.6188 46.5196 21.8869C46.5196 23.3362 45.3474 24.3699 44.0473 24.3699Z" fill="#1DB954"/>
</svg>
