<svg width="140" height="167" viewBox="0 0 140 167" fill="none" xmlns="http://www.w3.org/2000/svg">
<path fill-rule="evenodd" clip-rule="evenodd" d="M18.6827 167V152C18.6827 152 41.6923 159.817 52.1827 152C65.5218 142.06 55.0541 109.5 55.0541 109.5C55.0541 109.5 6.49969 90.1483 0.682725 60.5C-4.1972 35.6277 18.6827 0 18.6827 0C18.6827 0 49.7661 9.08606 70.1827 9C90.1187 8.91596 120.433 0 120.433 0C120.433 0 143.313 35.6277 138.433 60.5C132.616 90.1483 84.0613 109.5 84.0613 109.5C84.0613 109.5 73.5937 142.06 86.9327 152C97.4232 159.817 120.433 152 120.433 152V167H18.6827ZM11.1827 60.5C16.3003 81.666 48.1827 96 48.1827 96L22.1827 12.618C22.1827 12.618 6.51948 41.2131 11.1827 60.5ZM127.933 60.5C122.815 81.666 90.9327 96 90.9327 96L116.933 12.618C116.933 12.618 132.596 41.2131 127.933 60.5Z" fill="url(#paint0_linear)"/>
<defs>
<linearGradient id="paint0_linear" x1="123" y1="4.61142e-06" x2="19" y2="167" gradientUnits="userSpaceOnUse">
<stop stop-color="#B9B9B9"/>
<stop offset="1" stop-color="#656565"/>
</linearGradient>
</defs>
</svg>
